# xmcd CD database file
#
# Track frame offsets:
#	150
#	30516
#	56484
#	77924
#	97103
#	126966
#	158198
#	195370
#	227478
#	248570
#	273000
#
# Disc length: 3938 seconds
#
# Revision: 0
# Processed by: cddbd v1.5.2PL0 Copyright (c) Steve Scherf et al.
# Submitted via: CDex 1.70beta2
#
DISCID=820f600b
DTITLE=aRTET - Watts Up
DYEAR=2008
DGENRE=Jazz
TTITLE0=Thin Ice
TTITLE1=Watts Up
TTITLE2=Smoke
TTITLE3=Santa's Funeral
TTITLE4=Not A Safe Place
TTITLE5=Rain
TTITLE6=The Rope
TTITLE7=Madrid-Istanbul
TTITLE8=You Said?
TTITLE9=Vvvodka
TTITLE10=Silent Tango
EXTD=YEAR: 2008
EXTT0=
EXTT1=
EXTT2=
EXTT3=
EXTT4=
EXTT5=
EXTT6=
EXTT7=
EXTT8=
EXTT9=
EXTT10=
PLAYORDER=
